<svg xmlns="http://www.w3.org/2000/svg" version="1" width="460" height="460" viewBox="0 0 460 460"><path d="M19 251h19v76H19zM95 270h38v76H95z"/><rect width="57" height="19" x="38" y="270" ry="0"/><path d="M38 327h57v19H38zM95 346h19v19H95zM76 365h19v38H76zM57 384h19v19H57zM19 403h38v19H19zM0 422h19v38H0z"/><rect width="152" height="19" x="19" y="441" ry="0"/><path d="M152 327h19v114h-19zM133 308h133v19H133zM266 251h19v95h-19zM285 270h19v95h-19zM304 327h57v19h-57zM361 251h19v76h-19zM304 270h57v19h-57zM304 365h19v38h-19zM323 384h19v19h-19zM342 403h38v19h-38zM380 422h19v19h-19zM247 441h152v19H247zM228 327h19v133h-19zM171 384h57v19h-57zM114 251h19v19h-19zM171 232h95v19h-95zM190 251h38v19h-38zM190 270h19v19h-19zM152 213h19v19h-19zM266 213h95v19h-95zM342 232h19v19h-19zM285 194h56v19h-56zM190 194h76v19h-76zM304 156h19v38h-19zM114 156h38v57h-38zM95 175h19v38H95zM57 194h38v38H57zM38 213h19v38H38z"/><path d="M38 138h361v19H38zM361 119h19v19h-19zM342 100h19v19h-19zM323 81h19v19h-19zM285 62h38v19h-38zM266 43h19v19h-19zM228 24h38v19h-38zM209 5h19v19h-19zM171 24h38v19h-38zM152 43h19v19h-19zM114 62h38v19h-38zM95 81h19v19H95zM76 100h19v19H76zM57 119h19v19H57z"/><path fill="#fee532" d="M76 119h285v19H76zM95 100h247v19H95zM114 81h209v19H114zM152 62h133v19H152zM171 43h95v19h-95zM209 24h19v19h-19z"/><path fill="#007eff" d="M171 327h57v57h-57zM266 232h19v19h-19zM228 251h38v19h-38zM209 270h38v19h-38zM171 289h57v19h-57zM171 251h19v38h-19zM152 232h19v38h-19zM133 213h19v19h-19z"/><path fill="#f2f48a" d="M57 289h38v38H57zM38 308h19v19H38z"/><rect width="38" height="38" x="304" y="289" ry="0" fill="#f2f48a"/><rect width="19" height="19" x="342" y="308" ry="0" fill="#f2f48a"/><rect width="19" height="19" x="38" y="289" ry="0" fill="#f0ed71"/><path fill="#f0ed71" d="M342 289h19v19h-19z"/><path fill="#f2f48a" d="M152 156h19v57h-19zM171 175h19v57h-19zM190 213h76v19h-76zM247 156h19v38h-19zM266 194h19v19h-19zM285 175h19v19h-19z"/><path fill="#fff" d="M38 251h76v19H38zM57 232h95v19H57zM95 213h38v19H95zM133 251h19v57h-19zM152 270h19v38h-19zM247 270h19v38h-19zM228 289h19v19h-19zM285 232h57v38h-57zM342 251h19v19h-19zM171 156h76v19h-76zM190 175h57v19h-57zM266 156h19v38h-19zM285 156h19v19h-19z"/><path fill="#fff" d="M285 232h57v38h-57zM342 251h19v19h-19zM133 327h19v114h-19zM114 346h19v95h-19zM95 365h19v76H95zM57 403h38v38H57zM19 422h38v19H19zM247 327h19v114h-19zM266 346h19v95h-19zM285 365h19v76h-19zM304 403h38v38h-38zM342 422h38v19h-38z"/></svg>